<svg width="64" height="64" viewBox="0 0 64 64" fill="none" xmlns="http://www.w3.org/2000/svg">
<path d="M53.9183 32.5084C53.9183 30.9224 53.776 29.3975 53.5117 27.9335H32.4473V36.5849H44.484C43.9656 39.3806 42.3899 41.7494 40.0212 43.3353V48.9471H47.2493C51.4784 45.0535 53.9183 39.3196 53.9183 32.5084Z" fill="#4285F4"/>
<path d="M32.4473 54.3657C38.486 54.3657 43.5487 52.3628 47.2491 48.9472L40.021 43.3354C38.0183 44.6773 35.4564 45.4702 32.4473 45.4702C26.6219 45.4702 21.6914 41.5359 19.9326 36.2495H12.4604V42.0442C16.1407 49.3538 23.7043 54.3657 32.4473 54.3657Z" fill="#34A853"/>
<path d="M19.9326 36.2495C19.4853 34.9075 19.2312 33.4741 19.2312 32C19.2312 30.5259 19.4853 29.0925 19.9326 27.7505V21.9558H12.4605C10.9459 24.9752 10.0817 28.3911 10.0817 32C10.0817 35.6089 10.9459 39.0248 12.4605 42.0442L19.9326 36.2495Z" fill="#FBBC04"/>
<path d="M32.4473 18.5299C35.7308 18.5299 38.679 19.6582 40.997 21.8744L47.4119 15.4595C43.5386 11.8506 38.4757 9.6344 32.4473 9.6344C23.7043 9.6344 16.1407 14.6463 12.4604 21.9559L19.9326 27.7506C21.6914 22.4642 26.6219 18.5299 32.4473 18.5299Z" fill="#E94235"/>
</svg>
