<svg width="512" height="512" viewBox="0 0 512 512" fill="none" xmlns="http://www.w3.org/2000/svg">
<g filter="url(#filter0_n_3_284)">
<path d="M255.999 149.18V375.846M369.332 262.513H142.665M348.082 212.726L298.499 262.309L348.082 311.892M163.915 311.892L213.499 262.309L163.915 212.726M305.582 354.392L255.999 304.809L206.415 354.392M206.415 170.226L255.999 219.809L305.582 170.226" stroke="#9DDEFF" stroke-width="14.1702" stroke-linecap="round" stroke-linejoin="round"/>
</g>
<path fill-rule="evenodd" clip-rule="evenodd" d="M235.5 96.676C220.355 98.574 198.454 105.248 184.584 112.192C140.879 134.073 110.935 172.289 99.3271 221C95.8511 235.588 94.9481 264.375 97.4641 280.416C99.3361 292.358 103.62 307.823 107.462 316.509L109.917 322.062L103.867 333C96.7211 345.918 89.1521 363.407 85.8921 374.534C84.0071 380.967 83.5521 384.906 83.5291 395C83.5041 405.97 83.7751 408.057 85.7451 412.055C90.8831 422.481 99.8961 428.088 112.65 428.791C130.344 429.767 151.188 423.2 179.076 407.864L189.652 402.048L196.702 405.01C213.895 412.234 234.371 415.985 256.651 415.994C299.751 416.011 339.026 399.807 369.438 369.46C386.442 352.494 397.83 334.619 406.995 310.513L408.029 307.793L412.017 311.397C415.274 314.339 416.782 315 420.24 315C424.345 315 424.877 314.594 437.737 301.645C448.997 290.306 451 287.824 451 285.207C451 283.511 448.037 271.264 444.415 257.99L437.83 233.856L447.716 223.678C474.291 196.319 487.013 169.648 490.161 134.693C491.449 120.397 491.078 117.078 487.832 113.832C485.817 111.817 485.058 111.744 472.107 112.326C440.197 113.759 411.891 125.247 387.668 146.597L379.835 153.5L367.668 141.445C353.945 127.849 342.532 119.747 325.5 111.507C302.547 100.403 281.961 95.909 255.151 96.15C245.993 96.232 237.15 96.469 235.5 96.676ZM269 113.467C291.96 114.987 314.61 123.277 338.042 138.737C348.192 145.433 367.501 163.002 365.457 163.679C364.931 163.854 354.632 161.297 342.57 157.998C330.509 154.699 319.296 152 317.653 152C315.162 152 312.466 154.179 301.41 165.126C294.119 172.346 287.884 179.325 287.555 180.635C286.601 184.437 288.998 187.64 303.831 202.386L317.798 216.272L313.899 219.981C308.604 225.018 308.507 229.342 313.563 234.938L317.126 238.882L311.551 246.191C301.557 259.293 295.02 275.591 293.394 291.458L292.75 297.745L281.625 308.683C262.591 327.397 244.965 342.359 220 360.995C199.437 376.344 190.013 382.214 187.051 381.517C181.858 380.294 164.411 367.418 154.5 357.493C103.506 306.428 98.2421 227.231 141.984 169.181C158.211 147.647 185.053 128.303 210 120.164C225.274 115.181 248.194 111.586 258 112.637C259.375 112.784 264.325 113.157 269 113.467ZM474 131.369C474 136.862 471.207 151.238 468.404 160.171C464.937 171.218 456.962 186.615 449.874 195.943C446.716 200.099 428.462 219.138 409.309 238.252L374.486 273.003L352 250.5L329.514 227.997L364.507 192.956C383.753 173.684 401.795 156.132 404.599 153.953C423.643 139.152 445.444 130.89 472.75 128.126C473.528 128.048 474 129.273 474 131.369ZM417.748 154.427C401.389 160.265 396.627 181.351 408.892 193.642C421.623 206.402 443.507 200.825 448.532 183.54C453.935 164.953 435.94 147.935 417.748 154.427ZM430.365 171.073C435.211 174.884 433.323 183.416 427.5 184.022C419.029 184.904 414.71 177.199 420.455 171.455C423.454 168.455 426.87 168.323 430.365 171.073ZM338.355 174.113C346.685 176.376 353.703 178.416 353.951 178.647C354.199 178.879 348.806 184.678 341.967 191.534L329.531 203.999L318.771 193.271L308.01 182.544L314.226 176.272C317.645 172.822 321.065 170 321.826 170C322.587 170 330.025 171.851 338.355 174.113ZM428.616 265.089L433.101 281.381L426.549 287.933L419.997 294.485L409.259 283.747L398.521 273.009L410.961 260.539C417.804 253.68 423.566 248.232 423.766 248.433C423.966 248.633 426.149 256.128 428.616 265.089ZM341.351 261.85L352.168 272.701L347.834 276.428C339.5 283.596 326.343 289.757 314.947 291.828C311.26 292.498 310 292.42 310 291.523C310 287.596 314.529 273.789 318.014 267.09C321.816 259.782 328.273 251 329.845 251C330.224 251 335.402 255.883 341.351 261.85ZM373.157 292.518C376.167 293.257 379.231 291.939 383.275 288.167L386.049 285.579L390.178 289.708L394.308 293.837L391.067 303.169C373.955 352.439 331.229 388.566 279.5 397.505C261.485 400.618 235.533 399.157 217.565 394.019C206.996 390.996 206.91 390.844 213.243 386.384C238.001 368.951 275.258 338.195 298.135 316.306C305.227 309.519 306.081 309 310.135 308.993C322.686 308.973 345.433 299.897 357.5 290.095L363.5 285.221L367 288.543C368.925 290.37 371.696 292.159 373.157 292.518ZM142.976 369.024C149.904 375.952 159.177 384.04 163.73 387.126L171.96 392.705L158.23 399.256C140.517 407.706 129.866 411.077 119 411.67C104.008 412.489 99.5111 407.992 100.33 393C100.928 382.049 104.327 371.298 112.73 353.782L119.311 340.063L124.882 348.282C127.959 352.822 136.057 362.105 142.976 369.024Z" fill="url(#paint0_linear_3_284)"/>
<defs>
<filter id="filter0_n_3_284" x="135.58" y="142.095" width="240.837" height="240.837" filterUnits="userSpaceOnUse" color-interpolation-filters="sRGB">
<feFlood flood-opacity="0" result="BackgroundImageFix"/>
<feBlend mode="normal" in="SourceGraphic" in2="BackgroundImageFix" result="shape"/>
<feTurbulence type="fractalNoise" baseFrequency="2 2" stitchTiles="stitch" numOctaves="3" result="noise" seed="3866" />
<feColorMatrix in="noise" type="luminanceToAlpha" result="alphaNoise" />
<feComponentTransfer in="alphaNoise" result="coloredNoise1">
<feFuncA type="discrete" tableValues="1 1 1 1 1 1 1 1 1 1 1 1 1 1 1 1 1 1 1 1 1 1 1 1 1 1 1 1 1 1 1 1 1 1 1 1 1 1 1 1 1 1 1 1 1 1 1 1 1 1 1 0 0 0 0 0 0 0 0 0 0 0 0 0 0 0 0 0 0 0 0 0 0 0 0 0 0 0 0 0 0 0 0 0 0 0 0 0 0 0 0 0 0 0 0 0 0 0 0 0 "/>
</feComponentTransfer>
<feComposite operator="in" in2="shape" in="coloredNoise1" result="noise1Clipped" />
<feFlood flood-color="rgba(17, 24, 40, 0.5)" result="color1Flood" />
<feComposite operator="in" in2="noise1Clipped" in="color1Flood" result="color1" />
<feMerge result="effect1_noise_3_284">
<feMergeNode in="shape" />
<feMergeNode in="color1" />
</feMerge>
</filter>
<linearGradient id="paint0_linear_3_284" x1="287.19" y1="96.1409" x2="287.19" y2="428.885" gradientUnits="userSpaceOnUse">
<stop stop-color="#181818"/>
<stop offset="1" stop-color="#111828"/>
</linearGradient>
</defs>
</svg>
