<svg width="64" height="64" viewBox="0 0 64 64" fill="none" xmlns="http://www.w3.org/2000/svg">
<path d="M49.8338 24.2692C49.5624 24.4879 44.7698 27.2925 44.7698 33.5287C44.7698 40.7418 50.8681 43.2937 51.0507 43.3569C51.0226 43.5124 50.0819 46.8516 47.8354 50.2541C45.8323 53.2482 43.7402 56.2375 40.5577 56.2375C37.3751 56.2375 36.5561 54.3176 32.8822 54.3176C29.3018 54.3176 28.0288 56.3007 25.1177 56.3007C22.2066 56.3007 20.1754 53.5301 17.84 50.1277C15.1349 46.1323 12.9492 39.9253 12.9492 34.0342C12.9492 24.5851 18.865 19.5738 24.6871 19.5738C27.7807 19.5738 30.3595 21.6833 32.3018 21.6833C34.1505 21.6833 37.0335 19.4475 40.553 19.4475C41.8868 19.4475 46.6794 19.5738 49.8338 24.2692ZM38.8822 15.4472C40.3377 13.6536 41.3673 11.165 41.3673 8.67633C41.3673 8.33122 41.3393 7.98126 41.2784 7.69934C38.9102 7.79169 36.0928 9.33737 34.3939 11.3837C33.06 12.9585 31.8151 15.4472 31.8151 17.9698C31.8151 18.349 31.8759 18.7281 31.904 18.8496C32.0538 18.8788 32.2971 18.9128 32.5405 18.9128C34.6653 18.9128 37.3377 17.4352 38.8822 15.4472Z" fill="black"/>
</svg>
