<svg width="64" height="64" viewBox="0 0 64 64" fill="none" xmlns="http://www.w3.org/2000/svg">
<path d="M14.9369 28.1285C12.5959 23.8955 11.6737 20.4385 11.6737 18.1103C11.6737 15.7822 12.2412 15.1472 12.8087 14.5828C13.3763 14.0184 16.001 12.4663 16.4976 12.1136C16.9232 11.8314 18.6258 11.1964 19.6899 12.7485C20.754 14.3006 22.7403 17.3343 24.159 19.3802C26.3582 22.2728 24.5847 23.5427 24.0172 24.3188C22.9531 25.7298 22.3856 26.0825 22.3856 27.7757C22.3856 29.4689 27.2094 34.4075 28.3445 35.6068C29.4795 36.8062 34.3034 40.9686 35.7931 41.2508C37.2828 41.4625 39.3401 39.9104 39.7657 39.4871C41.9648 37.7939 43.1708 39.0638 44.164 39.6282C45.1571 40.1926 49.6972 43.0146 51.116 43.9317C52.4639 44.8489 52.322 46.3305 52.322 46.3305C52.322 46.3305 51.3998 49.0819 49.2716 51.1279C48.775 51.6217 47.8528 52.2567 45.6537 52.2567C43.4546 52.2567 41.0426 51.8334 35.3675 48.7292C30.7564 46.1894 26.3582 42.2385 24.0172 39.9104C21.6762 37.6528 17.6326 32.9964 14.9369 28.1285Z" fill="#63FB7D"/>
</svg>
